<?xml version="1.0" encoding="UTF-8" standalone="no"?>
<svg xmlns:dc="http://purl.org/dc/elements/1.1/" xmlns:cc="http://creativecommons.org/ns#" xmlns:rdf="http://www.w3.org/1999/02/22-rdf-syntax-ns#" xmlns:svg="http://www.w3.org/2000/svg" xmlns="http://www.w3.org/2000/svg" id="svg7330" version="1.1" viewBox="0 0 520 205.65141" height="205.65141mm" width="520mm">
  <defs id="defs7324"/>
  <metadata id="metadata7327">
    <rdf:RDF>
      <cc:Work rdf:about="">
        <dc:format>image/svg+xml</dc:format>
        <dc:type rdf:resource="http://purl.org/dc/dcmitype/StillImage"/>
        <dc:title/>
      </cc:Work>
    </rdf:RDF>
  </metadata>
  <g transform="translate(306.02508,-82.944085)" id="layer1">
    <path id="path7899" d="m -130.25996,288.55262 c -0.29104,-0.0564 -17.11854,-0.14925 -37.39444,-0.20632 l -36.86528,-0.10377 -2.46944,-0.92852 c -3.48927,-1.312 -8.28172,-3.78536 -9.9077,-5.11332 -0.75966,-0.62042 -2.88932,-2.19706 -4.73258,-3.50363 -4.32262,-3.06403 -8.9712,-7.00469 -10.75972,-9.12115 -7.83765,-8.06138 -13.83314,-15.49785 -20.01077,-24.64932 -0.63575,-0.94229 -1.51309,-2.04249 -1.94965,-2.44487 -0.43656,-0.40239 -0.8002,-0.90143 -0.80809,-1.10898 -0.008,-0.20754 -0.48413,-0.92698 -1.05833,-1.59875 -0.5742,-0.67176 -1.044,-1.44941 -1.044,-1.7281 0,-0.62782 -2.95052,-6.08677 -4.29764,-7.95135 -0.54671,-0.75671 -0.99402,-1.5125 -0.99402,-1.67954 0,-0.41889 -1.08097,-2.83919 -3.67727,-8.2335 -1.21403,-2.52236 -2.56199,-5.77673 -2.99548,-7.23194 -2.42904,-8.15433 -2.98197,-10.04908 -3.96351,-13.58195 -0.59297,-2.1343 -1.11168,-4.3568 -1.15269,-4.93889 -0.041,-0.58208 -0.33585,-1.93146 -0.6552,-2.99861 -0.31936,-1.06715 -0.66222,-2.57528 -0.76192,-3.35139 -0.0997,-0.77611 -0.4341,-2.91923 -0.74312,-4.7625 -0.63035,-3.76 -0.32871,-6.36483 0.88834,-7.67118 1.12092,-1.20317 8.96948,-3.41586 17.77154,-5.01023 6.92867,-1.25502 7.34469,-1.27867 8.08559,-0.45956 0.30713,0.33955 1.66377,3.95111 3.01475,8.02569 2.64417,7.97488 2.99499,8.89889 4.84691,12.76644 0.66785,1.39474 1.21428,2.72561 1.21428,2.95749 3.57481,9.9575 9.06477,19.73992 14.67169,28.4462 0.657,1.02706 1.32104,1.86738 1.47564,1.86738 0.15461,0 0.5483,0.43656 0.87487,0.97013 1.63347,2.66891 7.14355,8.4566 10.66344,11.2007 7.5491,5.88527 14.77063,8.26173 23.7237,7.80698 8.70165,-0.44197 12.72436,-1.25506 20.73371,-4.19081 1.55223,-0.56895 3.29848,-1.24823 3.88056,-1.5095 6.24346,-2.80244 15.72362,-5.94211 19.57916,-6.48428 3.00243,-0.42221 8.77371,-0.31593 9.09709,0.16752 0.13834,0.20681 1.12465,0.9566 2.1918,1.66618 2.70909,1.80137 12.87905,11.89716 19.05,18.91107 1.26118,1.43346 2.53118,2.84888 2.82223,3.14539 0.29104,0.2965 0.92604,1.04814 1.41111,1.67032 0.48507,0.62217 1.88777,2.3018 3.11712,3.73251 1.22936,1.43071 2.65811,3.13788 3.175,3.79371 0.84116,1.06724 4.00445,4.57984 5.878698,6.52786 0.38806,0.40332 0.864307,0.9935 1.058324,1.31149 0.932507,1.5283 4.156266,5.23597 4.414056,5.07665 0.16046,-0.0992 -0.10396,-1.40914 -0.587607,-2.91104 -0.483657,-1.50189 -1.025294,-4.27612 -1.203654,-6.16495 -0.178347,-1.88882 -0.574147,-4.8257 -0.879544,-6.52639 -0.305407,-1.70068 -0.687327,-3.96528 -0.848714,-5.03243 -0.16139,-1.06715 -0.533897,-2.89278 -0.827787,-4.05694 -0.293887,-1.16417 -0.723484,-3.3073 -0.954664,-4.7625 -0.23118,-1.45521 -0.976274,-3.98264 -1.655771,-5.61651 -1.632977,-3.92658 -1.992707,-7.86109 -0.838847,-9.17499 l 0.752407,-0.85678 0.948667,0.70829 c 0.964454,0.72008 1.969068,3.06927 2.350585,5.49664 0.11379,0.72401 0.369967,2.04402 0.569267,2.93337 0.19931,0.88934 0.282177,1.74675 0.18416,1.90535 -0.098,0.1586 0.137117,0.68925 0.522527,1.17922 0.385407,0.48997 0.700744,1.08639 0.700744,1.32536 0,0.23898 0.44464,1.16644 0.988094,2.06103 1.071174,1.76328 3.949399,8.29598 3.952939,8.97197 0.001,0.22861 0.25404,0.89191 0.561887,1.47399 1.165679,2.20411 1.808879,4.24375 1.557459,4.93889 -0.17624,0.48729 -0.0602,0.84291 0.37494,1.14957 1.04462,0.73611 3.05804,6.58384 2.40569,6.98702 -0.57058,0.35264 -0.33147,0.87084 0.55785,1.20896 0.64347,0.24465 0.98008,0.75395 1.2766,1.93155 0.23101,0.91744 0.60759,1.59929 0.88327,1.59929 0.48558,0 0.63284,-0.43822 1.00766,-2.99861 0.11362,-0.77611 0.46285,-2.99861 0.77608,-4.93889 0.67541,-4.18387 0.72152,-4.60274 1.0096,-9.17222 0.31897,-5.05938 0.24674,-11.21781 -0.14361,-12.24452 -0.18416,-0.48437 -0.32742,-1.7375 -0.31836,-2.78474 0.009,-1.04724 -0.0996,-3.67565 -0.24136,-5.8409 -0.30549,-4.66452 -0.45826,-4.47591 4.07951,-5.03657 3.1927,-0.39447 5.57661,-0.88386 8.05747,-1.6541 0.85919,-0.26676 2.16566,-0.48501 2.90328,-0.48501 0.73762,0 1.93965,-0.22292 2.67118,-0.49539 2.71571,-1.01148 5.634,-1.36047 9.46817,-1.13225 3.40617,0.20275 3.9961,0.34419 6.14477,1.47328 3.02313,1.58861 3.83264,2.45371 6.29376,6.72592 1.93598,3.36062 2.04942,3.48261 3.23842,3.48261 h 1.23216 l 0.20377,-2.11667 c 0.11207,-1.16417 0.39546,-2.47385 0.62977,-2.91042 0.57068,-1.06331 1.84453,-1.01791 3.18932,0.11366 1.327,1.11659 2.55653,1.03068 2.88863,-0.20185 0.1307,-0.48507 0.15324,-2.03716 0.0501,-3.44908 -0.17104,-2.34119 -0.11513,-2.64423 0.63515,-3.44287 0.90217,-0.96031 1.59059,-0.90994 3.21745,0.23546 0.51502,0.36259 1.32783,0.65927 1.80624,0.65927 1.30152,0 1.91087,-2.40245 1.34232,-5.29231 -0.4462,-2.26801 -0.42057,-2.40656 1.61625,-8.73804 0.45385,-1.41078 0.82518,-2.88745 0.82518,-3.28149 0,-0.39402 0.30664,-2.33537 0.68141,-4.31409 0.72999,-3.85409 1.43088,-8.22709 1.59441,-9.94769 0.0553,-0.58208 0.34813,-3.12208 0.65069,-5.64444 0.8366,-6.97439 1.03984,-11.28146 1.1397,-24.15284 l 0.0916,-11.80561 1.36068,-0.57715 c 0.74838,-0.31744 2.13222,-0.69257 3.07522,-0.83364 0.9429897,-0.14106 3.7719482,-0.72038 6.2865567,-1.28737 2.5146088,-0.56699 5.24630688,-1.03089 6.0704265,-1.03089 0.8241303,0 2.6783003,-0.31377 4.1203903,-0.69725 2.9065901,-0.77294 5.8562505,-0.91283 7.1187215,-0.33762 0.79563,0.36252 2.352641,3.6556 2.324071,4.91542 -0.0266,1.17305 0.441141,9.47514 0.636021,11.28889 0.11466,1.06716 0.25744,3.36903 0.3173,5.11528 0.0599,1.74625 0.22126,5.31813 0.35868,7.9375 0.34252,6.52904 0.35535,10.83247 0.0521,17.4625 -0.37972,8.30077 -0.54952,10.19448 -1.26526,14.11111 -0.21274,1.16417 -0.447781,2.91042 -0.522311,3.88056 -0.28212,3.67251 -1.515871,10.37309 -2.695661,14.64028 -0.348691,1.26118 -0.830511,3.4043 -1.070711,4.7625 -0.2402,1.35819 -0.72806,3.02507 -1.0841402,3.70417 -0.35608,0.67909 -0.90745,1.86972 -1.22525,2.64583 -0.31781,0.77611 -1.3536,3.01094 -2.30177,4.96628 -0.9481599,1.95535 -1.72393,3.68193 -1.72393,3.83684 0,0.43688 -7.072258,10.90496 -10.3787062,15.36216 -4.4661176,6.02046 -11.7130776,13.30296 -15.9191776,15.99724 -1.56099,0.99992 -3.08653,1.97679 -3.3901,2.17081 -0.30356,0.19403 -0.98513,0.65806 -1.51459,1.03117 -0.81435,0.57389 -1.89527,0.72037 -7.01684,0.95087 -10.65408,0.47949 -21.85877,0.64449 -56.85418,0.83726 -18.820636,0.10367 -35.330636,0.23394 -36.688836,0.28949 -1.35819,0.0556 -2.70757,0.0549 -2.99861,-10e-4 z m 58.384656,-29.38917 c 0.11992,-0.19403 0.0499,-0.35278 -0.15557,-0.35278 -0.20548,0 -0.3736,0.15875 -0.3736,0.35278 0.05613,0.54948 0.327108,0.25279 0.52917,0 z m 129.84893,28.66014 c -0.0504,-0.0502 -6.81034,-0.0922 -15.02216,-0.0933 -10.40367,-0.001 -15.07335,-0.12052 -15.40158,-0.39291 -1.0784,-0.895 -0.55015,-3.39823 1.82203,-8.63428 1.26118,-2.78376 2.29306,-5.15969 2.29306,-5.27986 0,-1.09344 10.27087,-21.32577 11.6266,-22.9029 0.33359,-0.38805 1.39135,-1.89618 2.35063,-3.35139 3.23889,-4.91332 8.72176,-11.8183 12.04623,-15.17065 1.30634,-1.31728 3.43916,-3.49718 4.73957,-4.84421 2.81181,-2.91255 6.31038,-6.00908 7.83022,-6.93039 0.60184,-0.36483 1.80862,-1.34352 2.68175,-2.17487 1.56312,-1.48835 4.3115,-3.91604 7.57008,-6.68682 0.91274,-0.77611 2.63881,-2.01245 3.83571,-2.74741 1.19687,-0.73496 2.73177,-1.774 3.41087,-2.30897 2.18366,-1.72022 10.12144,-6.4089 10.85003,-6.4089 1.802494,0 1.886524,2.24539 0.31038,8.29028 -0.50592,1.94027 -0.93045,4.0834 -0.9434,4.7625 -0.013,0.67909 -0.25735,2.42534 -0.5431,3.88055 -0.94774,4.82637 -1.50724,9.4942 -1.25229,10.44751 l 0.2516,0.94072 0.54772,-0.84342 c 0.30127,-0.46388 0.98069,-2.19279 1.50979,-3.84203 1.25969,-3.92633 1.00358,-3.3385 5.072104,-11.64167 3.0011,-6.12472 3.57253,-7.56543 3.73234,-9.41015 0.10375,-1.19802 0.41237,-2.71355 0.68574,-3.36786 0.63137,-1.51104 2.57409,-3.16655 3.5521,-3.02695 0.66457,0.0949 0.73837,0.31699 0.68267,2.05534 -0.0485,1.51341 -0.3489,2.45953 -1.3443,4.23334 -0.70507,1.25639 -1.58564,2.52246 -1.95684,2.81351 -0.46048,0.36104 -0.57563,0.68793 -0.36245,1.02888 0.18334,0.2932 0.17558,0.85983 -0.0187,1.37106 -0.18221,0.47923 -0.42224,1.44498 -0.53344,2.14611 -0.11119,0.70113 -0.33334,1.52033 -0.49364,1.82045 -0.16031,0.30011 -0.38337,1.33199 -0.4957,2.29305 -0.29355,2.51173 -0.56208,3.97764 -1.09555,5.98072 -0.25834,0.97014 -0.66553,3.51014 -0.90482,5.64445 -0.23928,2.1343 -0.66809,4.35082 -0.95288,4.9256 -0.29101,0.58731 -0.5591,2.28702 -0.61205,3.88056 -0.0518,1.55953 -0.19127,3.23238 -0.30991,3.71745 -0.18316,0.74905 -1.26419,7.92754 -1.26419,8.39488 0,0.4387 1.23106,-0.94625 1.66089,-1.86849 0.57775,-1.23971 2.30708,-4.04857 3.80719,-6.18382 0.5821,-0.82855 1.2171,-1.75405 1.41112,-2.05667 1.95621,-3.05102 2.69669,-4.17085 2.99744,-4.53281 0.19469,-0.23435 0.35397,-0.59154 0.35397,-0.79376 0,-0.20221 0.15057,-0.36766 0.33458,-0.36766 0.18397,0 1.54051,-1.62719 3.01445,-3.61598 1.47394,-1.98878 2.87344,-3.85409 3.11005,-4.14514 0.23658,-0.29104 0.82289,-1.08302 1.30288,-1.75996 0.48003,-0.67695 1.2271,-1.62945 1.66021,-2.11667 0.43307,-0.48723 1.78431,-2.08949 3.00277,-3.56058 5.18442,-6.2595 8.29691,-9.68308 9.96319,-10.95906 0.97744,-0.74849 2.17403,-1.7277 2.6591,-2.17604 2.42933,-2.24538 5.17172,-4.12213 6.02343,-4.12213 0.23396,0 1.32168,0.91281 2.41716,2.02847 2.09335,2.13194 3.98039,3.61597 4.5979,3.61597 0.20189,0 0.3745,0.11907 0.38357,0.26459 0.009,0.14552 0.83393,0.82021 1.833,1.4993 1.86005,1.26436 15.7892,14.98003 19.36591,19.06911 1.09396,1.25067 2.8629,3.24626 3.93093,4.43464 1.06807,1.18837 2.04904,2.49806 2.17992,2.91041 0.13085,0.41236 0.37109,0.74973 0.53386,0.74973 3.76834,5.04057 11.25287,15.24379 13.16944,20.63751 0.12887,0.38805 0.63705,1.34055 1.12928,2.11666 0.49223,0.77611 0.99011,1.64924 1.10642,1.94028 0.11627,0.29104 0.5098,1.1746 0.87446,1.96346 0.36467,0.78887 0.66305,1.65015 0.66305,1.91397 0,0.26381 0.52765,1.60275 1.1726,2.97542 1.20032,2.55484 1.532,3.42769 3.62941,9.55132 2.37927,6.94657 2.82533,8.57674 3.20128,11.69972 0.14348,1.19199 0.0509,1.53657 -0.49075,1.82645 -0.42181,0.22574 -7.80538,0.38806 -20.05326,0.44084 -27.85816,0.12005 -124.730894,0.16106 -124.839584,0.0529 z m 87.184884,-11.53937 c 0.31659,-0.11496 0.25813,-0.55049 -0.22426,-1.67077 -0.35884,-0.8334 -0.84867,-2.62653 -1.08849,-3.98472 -0.23982,-1.3582 -0.64432,-3.18382 -0.89888,-4.05695 -0.70094,-2.40403 -1.49747,-6.18803 -1.99933,-9.49813 -0.45897,-3.02704 -0.88883,-3.7435 -1.51289,-2.52148 -0.91472,1.79125 -3.86563,6.43487 -4.22945,6.65562 -0.22546,0.13679 -0.65137,0.72496 -0.9464,1.30705 -0.29506,0.58208 -1.195,2.12703 -1.99986,3.43321 -0.80483,1.30618 -1.46336,2.59197 -1.46336,2.85733 0,0.26535 -0.47336,1.18103 -1.05191,2.03484 -0.57856,0.85382 -1.05481,1.79336 -1.05834,2.08787 -0.004,0.2945 -0.42185,1.1468 -0.92957,1.89399 -0.55947,0.82332 -0.78157,1.44625 -0.56384,1.5812 0.39384,0.24409 17.27457,0.13223 17.96658,-0.11906 z m -259.36708,-49.79238 c -5.0723,-0.5147 -12.87543,-1.99887 -13.75833,-2.61685 -0.19403,-0.13581 -1.39078,-0.5771 -2.65945,-0.98063 -4.45591,-1.41735 -5.56164,-2.06993 -8.21906,-4.85076 l -2.56188,-2.68084 -2.93946,-0.5101 c -1.6167,-0.28056 -3.35511,-0.78906 -3.86314,-1.13001 -1.25045,-0.8392 -3.47695,-1.83143 -4.10963,-1.83143 -1.08104,0 -3.23505,-2.48952 -4.68396,-5.41356 -1.2812,-2.58557 -1.47622,-3.28322 -1.46014,-5.22348 0.0188,-2.27415 0.71606,-6.89821 1.14467,-7.59173 0.12928,-0.20917 -0.27636,-1.07483 -0.90141,-1.92368 -0.62504,-0.84886 -1.30083,-1.85947 -1.50175,-2.24581 -0.55529,-1.06778 -1.32763,-1.03114 -3.76385,0.17857 -1.22549,0.60852 -3.05031,1.32089 -4.05516,1.58304 -1.00484,0.26215 -2.11609,0.62612 -2.46944,0.80882 -1.87427,0.96911 -5.8528,0.67888 -6.70696,-0.48925 -0.8525,-1.16585 -0.54038,-2.27895 1.06732,-3.80642 2.25229,-2.13989 6.86807,-5.90043 8.57412,-6.98546 2.26964,-1.44346 2.49836,-2.14672 1.153,-3.54519 -0.60996,-0.63404 -1.5136,-2.02592 -2.00808,-3.09307 -0.49449,-1.06715 -1.2027,-2.28139 -1.57382,-2.69831 -0.72288,-0.81211 -2.6366,-4.13213 -2.96912,-5.151 -0.11081,-0.33954 -0.34172,-0.61736 -0.51311,-0.61736 -0.1714,0 -0.31164,-0.24795 -0.31164,-0.55101 0,-0.30306 -0.39027,-1.37598 -0.86726,-2.38426 -0.96535,-2.04059 -2.08159,-6.29671 -2.00215,-7.63401 0.089,-1.49822 2.33454,-4.34943 5.10215,-6.47831 1.54029,-1.18481 8.70638,-8.14131 8.70479,-8.45019 -7.1e-4,-0.15079 0.77865,-1.10329 1.73206,-2.11666 0.95341,-1.01338 2.55203,-2.795 3.55247,-3.95917 3.31338,-3.85562 8.40666,-8.78534 10.73171,-10.38708 0.40661,-0.28012 1.61241,-1.24842 2.67957,-2.15178 1.06715,-0.90337 2.73402,-2.17214 3.70416,-2.8195 0.97014,-0.64735 3.03389,-2.1274 4.58611,-3.28899 2.60402,-1.94869 4.49665,-2.90621 7.52229,-3.8057 0.92484,-0.27494 1.35935,-0.22594 2.05848,0.23215 1.33028,0.87163 4.20091,3.75921 4.70838,4.73618 0.24562,0.47285 0.58254,1.02847 0.74873,1.23472 0.9407,1.16748 3.05256,4.03559 3.5728,4.85222 0.33267,0.52219 1.78468,2.21103 3.22669,3.75297 1.44201,1.54195 2.89615,3.3372 3.23142,3.98945 0.33527,0.65226 1.23914,2.1158 2.00861,3.25234 0.76948,1.13653 1.53881,2.57261 1.70964,3.19129 0.17082,0.61868 0.5206,1.41209 0.77729,1.76313 0.44246,0.6051 0.55716,0.58289 2.20813,-0.4275 2.04161,-1.24947 7.236339,-2.5819 10.031671,-2.5731 3.033295,0.01 8.392735,2.10804 9.190395,3.59849 0.69056,1.29033 0.0866,2.19134 -2.63616,3.93265 -4.728494,3.02405 -11.063738,5.80312 -10.258384,4.50001 0.28804,-0.46606 -0.134347,-1.12595 -0.554487,-0.86629 -0.201337,0.12443 -0.203497,0.43873 -0.005,0.80861 0.1781,0.33279 0.19202,0.84057 0.0309,1.12842 -0.180897,0.32325 -0.033,1.12906 0.38675,2.10755 2.385075,5.55952 3.176452,6.19064 7.518085,5.99569 6.649866,-0.2986 7.836666,0.033 8.808256,2.46127 0.81872,2.04617 0.72545,2.83526 -0.63918,5.40754 -1.71171,3.22654 -1.84214,4.5751 -0.69144,7.14904 0.59169,1.32352 0.95039,2.77757 0.97799,3.96447 l 0.0436,1.87435 -2.62901,1.42088 c -1.44595,0.78149 -4.1447,2.02128 -5.997213,2.7551 -5.887807,2.33228 -9.141859,3.54059 -9.535046,3.54059 -0.20997,0 -1.329727,0.31935 -2.488367,0.70967 -1.15864,0.39031 -2.93957,0.79996 -3.95762,0.91033 -1.65914,0.17987 -2.76994,0.6317 -2.35666,0.9586 0.61838,0.48914 4.95562,2.51716 6.2809,2.93685 4.517325,1.43054 5.440419,1.5867 10.452472,1.7683 4.281924,0.15514 5.729204,0.0784 7.584714,-0.40245 3.80826,-0.9868 4.88159,-1.04529 5.69381,-0.31024 0.56422,0.51062 0.67601,0.92446 0.51749,1.91578 -0.2183,1.36519 -1.76503,6.28741 -2.2933,7.29806 -0.51823,0.99143 -2.05781,4.77164 -2.33553,5.73454 -0.58068,2.01332 -4.4278,9.47673 -5.72808,11.1125 -0.771179,0.97014 -1.653826,2.24014 -1.961453,2.82223 -0.635127,1.20177 -2.488595,3.04063 -3.710039,3.6808 -2.931785,1.53659 -4.722363,1.83048 -11.878664,1.94966 -3.88056,0.0646 -7.69056,0.0531 -8.46667,-0.0257 z m 225.45699,-35.72916 c -0.66248,-0.73477 -1.08103,-2.37553 -1.49452,-5.85896 -0.12213,-1.0288 -0.50327,-2.08598 -0.91465,-2.53679 -0.62901,-0.6893 -0.67187,-1.01362 -0.39631,-2.99861 0.24384,-1.75665 -0.12916,-8.43409 -0.52561,-9.41003 -0.0289,-0.0708 -0.48591,0.15534 -1.01587,0.50258 -2.4571,1.60994 -8.877248,3.91308 -10.316188,4.11031 -3.143028,-1.79677 -6.846318,-11.97886 -5.82951,-15.1407 2.50452,0.18511 3.256295,-0.46146 5.289284,-1.10912 2.61154,-0.83186 3.0359,-1.11105 5.732644,-3.7716 3.29299,-3.2488 3.59162,-3.91164 1.58938,-3.52779 -2.13199,0.40872 -6.791444,0.79283 -9.162894,0.75534 -3.19764,-0.0505 -3.76311,-0.71432 -3.92518,-4.60772 -0.14524,-3.48973 -0.37292,-3.79037 -3.29893,-4.35615 -2.46824,-0.47727 -4.77633,-1.8722 -5.07647,-3.06806 -0.34544,-1.37625 0.66777,-2.64305 2.11391,-2.64305 2.71703,0 6.10549,-2.54395 6.81341,-5.11528 0.76895,-2.79308 2.27355,-12.14732 2.01987,-12.55779 -0.0806,-0.13045 -0.90258,-0.35034 -1.82661,-0.48864 -2.12951,-0.31874 -7.49699,-2.04884 -8.8669,-2.85805 -0.57379,-0.33896 -1.22047,-1.00517 -1.43704,-1.48047 -0.96149,-2.11024 0.75685,-3.11662 4.65141,-2.72418 4.57574,0.46108 9.1336,0.71997 9.41275,0.53465 0.15,-0.0996 0.36837,-1.01001 0.48524,-2.02316 0.11688,-1.01315 0.52765,-2.83877 0.91282,-4.05695 0.64653,-2.04474 1.36006,-4.50272 2.73723,-9.429178 1.691204,-4.155482 3.436744,-11.721715 6.908484,-13.633383 1.44643,-0.759203 6.093,-0.13322 9.4452,1.272455 10.55573,1.521658 17.32449,10.892441 28.30036,11.641201 0.24807,0.0018 1.25684,0.378669 2.24173,0.837269 2.77551,1.292405 3.16021,2.399341 2.71395,7.808676 -0.22186,2.68947 -0.55428,4.60197 -0.89302,5.13761 -0.46189,0.73043 -1.23892,5.56973 -0.90569,5.64045 0.064,0.0136 2.02604,0.14578 4.36019,0.2938 3.13973,0.1991 4.49468,0.43341 5.20764,0.90056 1.75225,1.14813 1.67605,3.03919 -0.19629,4.86944 -1.4611,1.42827 -2.80483,1.92671 -5.91033,2.19238 -4.36961,0.37381 -4.07479,0.15987 -4.50162,3.26658 -0.20704,1.50703 -0.55608,3.45444 -0.77569,4.32757 -0.2196,0.87312 -0.53527,2.2225 -0.7015,2.99861 -0.35041,1.63617 -1.47207,5.06324 -2.27665,6.95603 -0.30663,0.72137 -0.55753,1.77355 -0.55753,2.33817 0,0.56461 -0.24034,1.60185 -0.53414,2.30495 -0.29376,0.7031 -0.7674,2.38734 -1.05255,3.74275 -0.28511,1.35541 -0.66706,2.74422 -0.84874,3.08624 -0.34562,0.65051 -0.95197,3.05817 -2.33335,9.26492 -1.19715,5.37895 -1.87413,9.62669 -2.09892,13.1702 l -0.1977,3.11603 -1.83917,2.0894 c -3.52301,4.00234 -8.61733,7.82453 -11.4706,8.6062 -0.9204,0.25215 -2.41272,0.79403 -3.31629,1.20418 -0.90353,0.41014 -2.57041,0.8421 -3.70417,0.95991 -1.80777,0.18786 -2.14414,0.12232 -2.73487,-0.5328 z m -389.38341,-32.40549 c -0.51012,-0.60183 -1.70274,-3.98129 -1.70274,-4.82494 0,-0.23232 -0.29661,-1.04752 -0.65913,-1.81157 -0.36252,-0.76405 -0.95269,-2.02418 -1.31149,-2.80029 -0.3588,-0.77611 -1.00049,-1.92826 -1.42596,-2.56033 -0.91884,-1.365 -6.4812,-12.62803 -6.4812,-13.12357 0,-0.18895 -0.26013,-0.94425 -0.57807,-1.67844 -0.31793,-0.73419 -0.73333,-1.73176 -0.9231,-2.21683 -0.18977,-0.48507 -0.46677,-1.12799 -0.61556,-1.42871 -0.14879,-0.30072 -0.45511,-1.49134 -0.68073,-2.64583 -0.22562,-1.15449 -0.55904,-2.81345 -0.74093,-3.68657 -1.28411,-6.16397 -1.27535,-6.00746 -0.93515,-16.7196 0.19119,-6.020323 0.3119,-7.117807 0.84891,-7.718676 0.93332,-1.044307 2.89407,-2.173178 4.68296,-2.696136 0.87313,-0.255245 1.98438,-0.597574 2.46945,-0.76073 2.85305,-0.95964 7.46371,-1.299651 8.0232,-0.591665 0.19166,0.242535 0.45499,3.041671 0.58518,6.220302 0.28533,6.966715 1.97733,16.337025 3.63846,20.149835 1.75028,4.01744 2.92678,6.35 3.20284,6.35 0.17326,0 0.42504,-2.65906 0.55952,-5.90903 0.13448,-3.24996 0.47432,-6.86152 0.7552,-8.02569 0.28088,-1.16417 0.51317,-2.70064 0.5162,-3.41438 0.008,-1.83959 0.81373,-2.53353 2.62374,-2.25917 2.25692,0.3421 3.02621,1.46966 3.02621,4.43553 0,1.33475 -0.13856,2.79433 -0.30791,3.24353 -0.57525,1.52579 -0.90526,4.68775 -0.82162,7.87227 0.078,2.97124 1.02045,11.70893 1.31413,12.18412 0.17239,0.27893 0.78283,3.83858 1.41942,8.27699 0.27829,1.94028 0.66304,4.55965 0.855,5.82083 0.54463,3.57823 0.46552,4.38758 -0.5257,5.37881 -0.4889,0.4889 -1.48109,1.04796 -2.20486,1.24237 -4.10115,1.10155 -9.73533,2.99294 -10.73971,3.60531 -1.43217,0.87318 -3.16952,0.91464 -3.86656,0.0923 z m 259.823616,-10.61667 c -0.18964,-0.12719 -1.44473,-1.87882 -2.78909,-3.89253 -1.34436,-2.01372 -2.68241,-4.01718 -2.97345,-4.45215 -0.29104,-0.43497 -1.13814,-1.84332 -1.88245,-3.12968 -0.7443,-1.28635 -1.47288,-2.33883 -1.61907,-2.33883 -0.14618,0 -0.46208,-0.43082 -0.702,-0.95738 -0.62376,-1.36901 -4.51092,-5.74587 -6.37366,-7.17662 -3.44292,-2.64446 -7.86239,-4.95259 -10.78441,-5.63233 -3.0464,-0.70866 -3.62821,-1.04212 -4.05044,-2.32151 -0.48668,-1.47466 0.081,-3.53008 1.06079,-3.84107 0.75781,-0.24051 5.46883,0.3111 8.9345,1.04614 2.30052,0.48792 8.62568,3.38852 9.13575,4.18948 0.13497,0.21195 0.36191,0.26885 0.50431,0.12645 0.25082,-0.25082 -3.39635,-8.0013 -4.26776,-9.06927 -0.23747,-0.29104 -1.34822,-2.27006 -2.46833,-4.39782 -2.55307,-4.84981 -4.358,-7.767291 -6.84681,-11.067192 -1.87454,-2.48544 -1.93188,-2.625059 -1.43875,-3.502661 0.69193,-1.231388 1.59143,-1.412793 7.28296,-1.468786 5.34197,-0.05255 9.64303,0.536148 12.20861,1.671027 1.72503,0.763062 5.14749,3.196851 6.59279,4.688279 2.11198,2.179384 6.24068,7.317503 6.96384,8.666413 0.43298,0.80764 1.25946,2.23639 1.8366297,3.175 1.4291894,2.32422 3.3977782,6.41458 3.7076279,7.7038 0.21946,0.91308 1.2749794,3.27194 5.68287697,12.7 0.45356967,0.97014 1.18086904,2.77919 1.61621903,4.02011 0.4353496,1.24093 1.1740099,2.71077 1.64148,3.26632 0.8930099,1.06128 1.3676699,3.22044 1.01092,4.59851 -0.2974501,1.14901 -2.1119503,2.21491 -4.9914687,2.93217 -1.3581891,0.33832 -3.5806879,0.9889 -4.9388773,1.44576 -1.3581991,0.45684 -3.4219479,1.09001 -4.5861176,1.40702 -1.16416,0.31702 -2.91041,0.79965 -3.88055,1.07251 -2.47775,0.69689 -3.19066,0.80402 -3.58607,0.53884 z" style="fill:#000000;fill-opacity:1;stroke-width:0.35277778"/>
  </g>
</svg>